HIERARCHY
ROOT root
{
	OFFSET	0.00	0.00	0.00
	CHANNELS 6 Xposition Yposition Zposition Zrotation Xrotation Yrotation
	JOINT back
	{
		OFFSET	 0.494685	-0.003166	-0.003221
		CHANNELS 3 Zrotation Xrotation Yrotation
		JOINT chest
		{
			OFFSET	 0.264817	 0.004177	 0.000000
			CHANNELS 3 Zrotation Xrotation Yrotation
			JOINT l_clavicle
			{
				OFFSET	 0.114550	 0.000716	-0.065320
				CHANNELS 3 Zrotation Xrotation Yrotation
				JOINT l_end_clavicle
				{
					OFFSET	 0.162817	-0.003802	 0.000069
					CHANNELS 3 Zrotation Xrotation Yrotation
					JOINT l_shoulder
					{
						OFFSET	 0.005353	-0.036500	 0.055847
						CHANNELS 3 Zrotation Xrotation Yrotation
						JOINT l_forearm
						{
							OFFSET	 0.293707	 0.004723	-0.037815
							CHANNELS 3 Zrotation Xrotation Yrotation
							JOINT l_end_wrist
							{
								OFFSET	 0.317021	-0.006522	 0.006333
								CHANNELS 3 Zrotation Xrotation Yrotation
								JOINT l_index1
								{
									OFFSET	 0.152748	-0.021000	-0.014320
									CHANNELS 3 Zrotation Xrotation Yrotation
									JOINT l_index2
									{
										OFFSET	 0.039283	 0.000000	 0.000000
										CHANNELS 3 Zrotation Xrotation Yrotation
										JOINT l_index3
										{
											OFFSET	 0.038151	 0.000000	 0.000000
											CHANNELS 3 Zrotation Xrotation Yrotation
											End Site
											{
												OFFSET	 0.038151	 0.000000	 0.000000
											}
										}
									}
								}
								JOINT l_middle1
								{
									OFFSET	 0.151723	 0.016194	-0.014667
									CHANNELS 3 Zrotation Xrotation Yrotation
									JOINT l_middle_2
									{
										OFFSET	 0.038269	 0.000000	 0.000000
										CHANNELS 3 Zrotation Xrotation Yrotation
										JOINT l_middle_3
										{
											OFFSET	 0.039743	 0.000000	 0.000000
											CHANNELS 3 Zrotation Xrotation Yrotation
											End Site
											{
												OFFSET	 0.039743	 0.000000	 0.000000
											}
										}
									}
								}
								JOINT l_pinky1
								{
									OFFSET	 0.117088	 0.077397	-0.013818
									CHANNELS 3 Zrotation Xrotation Yrotation
									JOINT l_pinky2
									{
										OFFSET	 0.028938	 0.000000	 0.000000
										CHANNELS 3 Zrotation Xrotation Yrotation
										JOINT l_pinky3
										{
											OFFSET	 0.027080	 0.000000	 0.000000
											CHANNELS 3 Zrotation Xrotation Yrotation
											End Site
											{
												OFFSET	 0.027080	 0.000000	 0.000000
											}
										}
									}
								}
								JOINT l_ring1
								{
									OFFSET	 0.137788	 0.047650	-0.014135
									CHANNELS 3 Zrotation Xrotation Yrotation
									JOINT l_ring2
									{
										OFFSET	 0.030749	 0.000000	 0.000000
										CHANNELS 3 Zrotation Xrotation Yrotation
										JOINT l_ring3
										{
											OFFSET	 0.032711	 0.000000	 0.000000
											CHANNELS 3 Zrotation Xrotation Yrotation
											End Site
											{
												OFFSET	 0.032711	 0.000000	 0.000000
											}
										}
									}
								}
								JOINT l_thumb1
								{
									OFFSET	 0.054053	-0.036728	-0.011261
									CHANNELS 3 Zrotation Xrotation Yrotation
									JOINT l_thumb_2
									{
										OFFSET	 0.051141	-0.005593	-0.001180
										CHANNELS 3 Zrotation Xrotation Yrotation
										JOINT l_thumb_3
										{
											OFFSET	 0.046422	-0.001905	 0.000191
											CHANNELS 3 Zrotation Xrotation Yrotation
											End Site
											{
												OFFSET	 0.046422	-0.001905	 0.000191
											}
										}
									}
								}
							}
						}
					}
				}
			}
			JOINT neck
			{
				OFFSET	 0.143918	 0.000470	 0.000000
				CHANNELS 3 Zrotation Xrotation Yrotation
				JOINT head
				{
					OFFSET	-0.005023	-0.004308	 0.061004
					CHANNELS 3 Zrotation Xrotation Yrotation
					End Site
					{
						OFFSET	-0.005023	-0.004308	 0.061004
					}
				}
			}
			JOINT r_clavicle
			{
				OFFSET	 0.114552	 0.000716	 0.065320
				CHANNELS 3 Zrotation Xrotation Yrotation
				JOINT r_end_clavicle
				{
					OFFSET	-0.162817	 0.003801	-0.000067
					CHANNELS 3 Zrotation Xrotation Yrotation
					JOINT r_shoulder
					{
						OFFSET	 0.002125	 0.026355	-0.022719
						CHANNELS 3 Zrotation Xrotation Yrotation
						JOINT r_forearm
						{
							OFFSET	-0.279896	-0.026941	 0.065273
							CHANNELS 3 Zrotation Xrotation Yrotation
							JOINT r_end_wrist
							{
								OFFSET	-0.317022	 0.006522	-0.006331
								CHANNELS 3 Zrotation Xrotation Yrotation
								JOINT r_index1
								{
									OFFSET	-0.152748	 0.021000	 0.014322
									CHANNELS 3 Zrotation Xrotation Yrotation
									JOINT r_index2
									{
										OFFSET	-0.039280	 0.000000	-0.000001
										CHANNELS 3 Zrotation Xrotation Yrotation
										JOINT r_index3
										{
											OFFSET	-0.038152	 0.000000	-0.000001
											CHANNELS 3 Zrotation Xrotation Yrotation
											End Site
											{
												OFFSET	-0.038152	 0.000000	-0.000001
											}
										}
									}
								}
								JOINT r_middle1
								{
									OFFSET	-0.151722	-0.016194	 0.014664
									CHANNELS 3 Zrotation Xrotation Yrotation
									JOINT r_middle_2
									{
										OFFSET	-0.038270	 0.000000	 0.000003
										CHANNELS 3 Zrotation Xrotation Yrotation
										JOINT r_middle_3
										{
											OFFSET	-0.039744	 0.000000	 0.000000
											CHANNELS 3 Zrotation Xrotation Yrotation
											End Site
											{
												OFFSET	-0.039744	 0.000000	 0.000000
											}
										}
									}
								}
								JOINT r_pinky1
								{
									OFFSET	-0.117090	-0.077397	 0.013818
									CHANNELS 3 Zrotation Xrotation Yrotation
									JOINT r_pinky2
									{
										OFFSET	-0.028938	 0.000000	 0.000000
										CHANNELS 3 Zrotation Xrotation Yrotation
										JOINT r_pinky3
										{
											OFFSET	-0.027078	-0.000001	 0.000000
											CHANNELS 3 Zrotation Xrotation Yrotation
											End Site
											{
												OFFSET	-0.027078	-0.000001	 0.000000
											}
										}
									}
								}
								JOINT r_ring1
								{
									OFFSET	-0.137790	-0.047650	 0.014136
									CHANNELS 3 Zrotation Xrotation Yrotation
									JOINT r_ring2
									{
										OFFSET	-0.030748	 0.000000	-0.000001
										CHANNELS 3 Zrotation Xrotation Yrotation
										JOINT r_ring3
										{
											OFFSET	-0.032707	-0.000001	 0.000003
											CHANNELS 3 Zrotation Xrotation Yrotation
											End Site
											{
												OFFSET	-0.032707	-0.000001	 0.000003
											}
										}
									}
								}
								JOINT r_thumb1
								{
									OFFSET	-0.054054	 0.036728	 0.011262
									CHANNELS 3 Zrotation Xrotation Yrotation
									JOINT r_thumb_2
									{
										OFFSET	-0.051140	 0.005594	 0.001177
										CHANNELS 3 Zrotation Xrotation Yrotation
										JOINT r_thumb_3
										{
											OFFSET	-0.046419	 0.001906	-0.000190
											CHANNELS 3 Zrotation Xrotation Yrotation
											End Site
											{
												OFFSET	-0.046419	 0.001906	-0.000190
											}
										}
									}
								}
							}
						}
					}
				}
			}
		}
	}
	JOINT Pelvis
	{
		OFFSET	 0.153809	-0.002941	-0.002620
		CHANNELS 3 Zrotation Xrotation Yrotation
		JOINT l_thigh
		{
			OFFSET	 0.145216	-0.127334	 0.003600
			CHANNELS 3 Zrotation Xrotation Yrotation
			End Site
			{
				OFFSET	 0.145216	-0.127334	 0.003600
			}
		}
		JOINT r_thigh
		{
			OFFSET	 0.143029	 0.137873	 0.004469
			CHANNELS 3 Zrotation Xrotation Yrotation
			End Site
			{
				OFFSET	 0.143029	 0.137873	 0.004469
			}
		}
	}
}
MOTION
Frames:    7
Frame Time: 0.01666667
-0.001692	-0.109060	 0.018225	 171.740400	 3.897801	-87.612120	-11.196500	 4.106421	-1.814355	-9.856385	 9.796600	-1.959347	 1.547994	-6.269709	 110.444300	-0.813313	 0.122417	-8.559153	-52.676990	-23.825000	 21.983730	-3.343585	 32.416860	 1.122703	-12.230870	 26.796750	-67.591640	-5.466561	-2.015671	 9.912610	 2.503324	-1.126932	 4.512146	 3.269194	-0.634905	-79.900480	 3.780686	 3.094844	 11.955340	-0.275905	 3.148022	 9.006140	 2.904034	 4.341448	-70.267300	 37.125150	 19.692740	 15.062450	-6.822537	 19.211440	 10.820750	-5.638475	 19.245740	-70.206960	 18.313710	 10.319580	 21.434730	-3.898858	 9.395122	 9.460192	-0.473463	 9.974930	-72.425380	-57.436700	-11.465880	 6.689007	 9.284960	-0.525222	 0.082313	-19.390840	-0.175535	 3.200025	 1.193874	-8.315438	 90.412030	-96.809430	 1.555866	-141.326200	-179.557100	-2.339586	 91.599530	-0.813313	 0.122417	-8.559153	-56.290310	-38.072210	-17.301150	-81.916050	-4.110250	-10.966770	-23.111980	 10.824110	-63.077830	-14.362410	-8.380037	 72.877040	 2.455843	-1.173149	 84.548620	 1.462631	 1.684399	-20.538850	-4.760243	-4.476403	 69.487600	-0.136287	 3.279110	 77.403450	 0.287775	 7.178344	-13.526710	 29.856430	 12.401360	 57.188510	-6.031400	 19.802330	 66.147710	-4.745242	 19.547570	-22.481640	 14.387440	 5.462607	 67.360760	-3.487336	 9.753204	 73.619320	-1.893497	 12.083520	-11.122610	-31.740160	-0.034443	 29.931090	 40.976350	-0.535723	 0.355394	 44.228000	-0.401053	 3.700468	 0.000000	 90.000000	 0.000000	 170.460400	 6.878875	 170.694900	-176.877200	-2.264638	-5.276033
-0.001524	-0.108860	 0.018215	 171.735300	 3.878649	-87.594700	-11.196520	 4.109393	-1.806304	-9.859149	 9.809522	-1.953132	 1.545735	-6.261119	 110.443600	-0.813313	 0.122417	-8.559153	-52.683400	-23.825970	 21.981410	-3.344098	 32.432740	 1.122684	-12.290480	 26.860750	-67.712100	-5.466561	-2.015671	 9.912610	 2.503324	-1.126932	 4.512146	 3.269194	-0.634905	-79.900480	 3.781128	 3.095038	 11.955310	-0.275905	 3.148022	 9.006140	 2.904047	 4.341399	-70.268010	 37.125890	 19.693010	 15.062210	-6.822537	 19.211440	 10.820750	-5.638493	 19.245740	-70.207980	 18.314210	 10.319840	 21.434640	-3.898858	 9.395122	 9.460192	-0.473463	 9.974930	-72.425380	-57.435920	-11.465770	 6.688855	 9.284960	-0.525222	 0.082313	-19.390840	-0.175535	 3.200025	 1.193769	-8.353616	 90.410390	-96.837430	 1.582910	-141.483700	-179.554700	-2.366364	 91.598320	-0.813313	 0.122417	-8.559153	-56.454370	-38.078180	-17.364870	-81.609690	-4.232961	-10.928430	-23.041950	 10.700020	-62.983920	-14.358390	-8.372293	 72.845260	 2.455847	-1.173108	 84.503040	 1.464306	 1.683708	-20.573860	-4.758617	-4.473189	 69.477090	-0.136281	 3.279134	 77.411860	 0.287178	 7.178548	-13.517820	 29.861550	 12.410090	 57.159520	-6.031341	 19.802460	 66.155780	-4.745073	 19.547720	-22.470220	 14.385870	 5.463060	 67.334010	-3.487316	 9.753268	 73.626790	-1.893876	 12.083700	-11.113020	-31.761930	-0.056593	 29.891620	 40.926310	-0.535826	 0.354968	 44.129020	-0.401167	 3.699576	 0.000000	 90.000000	 0.000000	 170.449000	 6.876899	 170.749600	-176.886500	-2.264103	-5.216846
-0.001356	-0.108680	 0.018211	 171.732700	 3.863805	-87.577110	-11.197750	 4.112078	-1.798970	-9.862950	 9.822220	-1.947451	 1.543730	-6.253502	 110.442900	-0.813313	 0.122417	-8.559153	-52.689280	-23.826400	 21.978580	-3.344587	 32.448590	 1.122633	-12.327860	 26.914070	-67.839190	-5.466561	-2.015671	 9.912610	 2.503324	-1.126932	 4.512146	 3.269194	-0.634905	-79.900480	 3.781571	 3.095232	 11.955290	-0.275905	 3.148022	 9.006140	 2.904058	 4.341354	-70.268670	 37.126620	 19.693280	 15.061960	-6.822537	 19.211440	 10.820750	-5.638516	 19.245740	-70.208920	 18.314680	 10.320090	 21.434540	-3.898858	 9.395122	 9.460192	-0.473463	 9.974930	-72.425380	-57.435180	-11.465660	 6.688720	 9.284960	-0.525222	 0.082313	-19.390840	-0.175535	 3.200025	 1.193964	-8.387571	 90.408930	-96.863800	 1.608079	-141.633100	-179.553100	-2.384512	 91.601780	-0.813313	 0.122417	-8.559153	-56.567910	-38.083380	-17.408560	-81.511810	-4.295816	-10.904070	-22.939090	 10.584580	-62.927890	-14.354650	-8.365082	 72.815630	 2.455851	-1.173071	 84.460600	 1.465866	 1.683064	-20.606450	-4.757251	-4.470479	 69.468160	-0.136274	 3.279165	 77.422540	 0.286409	 7.178813	-13.506350	 29.865710	 12.417310	 57.134940	-6.031265	 19.802630	 66.165980	-4.744852	 19.547920	-22.455340	 14.383900	 5.462663	 67.311370	-3.487292	 9.753349	 73.636360	-1.894364	 12.083930	-11.100710	-31.782240	-0.077238	 29.854780	 40.879630	-0.535920	 0.354571	 44.036720	-0.401279	 3.698746	 0.000000	 90.000000	 0.000000	 170.437500	 6.875350	 170.798900	-176.896100	-2.263318	-5.164167
-0.001172	-0.108513	 0.018215	 171.732400	 3.851476	-87.556370	-11.200360	 4.114988	-1.791071	-9.868334	 9.836953	-1.941295	 1.541641	-6.245554	 110.442200	-0.813313	 0.122417	-8.559153	-52.695890	-23.825330	 21.971500	-3.345155	 32.467410	 1.122596	-12.352490	 26.967000	-67.990430	-5.466561	-2.015671	 9.912610	 2.503324	-1.126932	 4.512146	 3.269194	-0.634905	-79.900480	 3.782073	 3.095450	 11.955270	-0.275905	 3.148022	 9.006140	 2.904070	 4.341305	-70.269390	 37.127510	 19.693610	 15.061660	-6.822537	 19.211440	 10.820750	-5.638536	 19.245740	-70.209950	 18.315260	 10.320380	 21.434430	-3.898858	 9.395122	 9.460192	-0.473463	 9.974930	-72.425380	-57.434410	-11.465540	 6.688555	 9.284960	-0.525222	 0.082313	-19.390840	-0.175535	 3.200025	 1.194443	-8.422395	 90.407380	-96.893340	 1.635142	-141.797100	-179.552100	-2.396014	 91.609990	-0.813313	 0.122417	-8.559153	-56.642930	-38.087680	-17.438610	-81.432270	-4.344460	-10.889220	-22.812810	 10.476980	-62.905720	-14.350510	-8.357120	 72.782950	 2.455856	-1.173029	 84.413720	 1.467588	 1.682351	-20.642440	-4.755875	-4.467753	 69.459200	-0.136266	 3.279205	 77.436350	 0.285409	 7.179155	-13.491440	 29.869720	 12.424410	 57.110300	-6.031160	 19.802840	 66.179100	-4.744562	 19.548180	-22.435830	 14.381310	 5.461517	 67.288690	-3.487261	 9.753455	 73.648760	-1.894995	 12.084230	-11.084790	-31.804700	-0.100041	 29.814040	 40.828030	-0.536029	 0.354134	 43.934640	-0.401397	 3.697826	 0.000000	 90.000000	 0.000000	 170.424000	 6.874053	 170.849000	-176.907600	-2.262192	-5.114090
-0.001000	-0.108395	 0.018229	 171.735700	 3.844700	-87.535640	-11.204020	 4.117714	-1.783705	-9.874471	 9.851597	-1.935536	 1.540517	-6.241327	 110.441500	-0.813313	 0.122417	-8.559153	-52.702300	-23.822830	 21.961210	-3.345667	 32.486650	 1.122509	-12.370250	 27.016020	-68.136920	-5.466561	-2.015671	 9.912610	 2.503324	-1.126932	 4.512146	 3.269194	-0.634905	-79.900480	 3.782612	 3.095687	 11.955230	-0.275905	 3.148022	 9.006140	 2.904082	 4.341259	-70.270050	 37.128370	 19.693930	 15.061370	-6.822537	 19.211440	 10.820750	-5.638554	 19.245750	-70.210930	 18.315840	 10.320680	 21.434320	-3.898858	 9.395122	 9.460192	-0.473463	 9.974930	-72.425380	-57.433660	-11.465440	 6.688408	 9.284960	-0.525222	 0.082313	-19.390840	-0.175535	 3.200025	 1.195168	-8.452154	 90.405970	-96.921970	 1.659594	-141.948600	-179.552000	-2.396074	 91.621410	-0.813313	 0.122417	-8.559153	-56.661640	-38.090110	-17.449440	-81.419150	-4.353341	-10.888610	-22.709740	 10.416420	-62.911690	-14.346560	-8.349542	 72.751790	 2.455860	-1.172989	 84.369050	 1.469229	 1.681671	-20.676750	-4.754686	-4.465403	 69.451500	-0.136256	 3.279245	 77.450340	 0.284387	 7.179504	-13.476230	 29.873000	 12.430360	 57.089100	-6.031057	 19.803060	 66.192410	-4.744265	 19.548440	-22.415810	 14.378580	 5.459911	 67.269170	-3.487227	 9.753563	 73.661410	-1.895638	 12.084540	-11.068580	-31.826160	-0.121799	 29.775180	 40.778800	-0.536131	 0.353715	 43.837240	-0.401508	 3.696946	 0.000000	 90.000000	 0.000000	 170.410800	 6.873330	 170.890200	-176.919500	-2.260947	-5.079109
-0.000816	-0.108314	 0.018252	 171.744100	 3.843084	-87.513100	-11.209040	 4.120521	-1.776110	-9.881957	 9.867584	-1.929560	 1.540998	-6.243257	 110.441100	-0.813313	 0.122417	-8.559153	-52.709060	-23.818730	 21.946940	-3.346258	 32.508340	 1.122406	-12.384680	 27.066560	-68.289630	-5.466561	-2.015671	 9.912610	 2.503324	-1.126932	 4.512146	 3.269194	-0.634905	-79.900480	 3.783171	 3.095932	 11.955200	-0.275905	 3.148022	 9.006140	 2.904094	 4.341209	-70.270770	 37.129320	 19.694280	 15.061040	-6.822537	 19.211440	 10.820750	-5.638577	 19.245750	-70.211940	 18.316470	 10.321010	 21.434200	-3.898858	 9.395122	 9.460192	-0.473463	 9.974930	-72.425380	-57.432870	-11.465310	 6.688261	 9.284960	-0.525222	 0.082313	-19.390840	-0.175535	 3.200025	 1.196223	-8.479954	 90.404530	-96.952220	 1.682450	-142.099900	-179.553100	-2.383303	 91.636570	-0.813313	 0.122417	-8.559153	-56.630960	-38.091450	-17.444800	-81.626190	-4.282456	-10.903760	-22.683280	 10.431220	-62.917920	-14.342380	-8.341523	 72.718880	 2.455865	-1.172947	 84.321890	 1.470961	 1.680952	-20.712960	-4.753564	-4.463175	 69.444130	-0.136247	 3.279289	 77.465000	 0.283314	 7.179872	-13.460240	 29.875950	 12.435880	 57.068890	-6.030951	 19.803280	 66.206280	-4.743953	 19.548730	-22.394710	 14.375550	 5.457879	 67.250550	-3.487193	 9.753675	 73.674640	-1.896309	 12.084850	-11.051640	-31.848880	-0.144780	 29.734070	 40.726760	-0.536233	 0.353275	 43.734300	-0.401631	 3.696022	 0.000000	 90.000000	 0.000000	 170.396500	 6.873246	 170.924700	-176.932800	-2.259478	-5.060528
-0.000644	-0.108281	 0.018283	 171.755700	 3.846097	-87.491410	-11.214810	 4.123105	-1.769091	-9.889838	 9.883176	-1.923994	 1.542584	-6.249422	 110.440800	-0.813313	 0.122417	-8.559153	-52.715370	-23.813560	 21.930560	-3.346778	 32.530270	 1.122265	-12.395560	 27.113300	-68.428090	-5.466561	-2.015671	 9.912610	 2.503324	-1.126932	 4.512146	 3.269194	-0.634905	-79.900480	 3.783730	 3.096177	 11.955170	-0.275905	 3.148022	 9.006140	 2.904107	 4.341163	-70.271450	 37.130270	 19.694630	 15.060720	-6.822537	 19.211440	 10.820750	-5.638596	 19.245750	-70.212910	 18.317080	 10.321330	 21.434080	-3.898858	 9.395122	 9.460192	-0.473463	 9.974930	-72.425380	-57.432150	-11.465200	 6.688106	 9.284960	-0.525222	 0.082313	-19.390840	-0.175535	 3.200025	 1.197442	-8.503653	 90.403240	-96.974690	 1.707834	-142.298100	-179.554900	-2.361078	 91.653280	-0.813313	 0.122417	-8.559153	-56.561300	-38.091420	-17.428370	-81.937200	-4.165154	-10.929960	-22.751030	 10.520850	-62.920500	-14.338430	-8.333958	 72.687790	 2.455869	-1.172907	 84.277280	 1.472598	 1.680271	-20.747200	-4.752614	-4.461287	 69.437870	-0.136239	 3.279325	 77.477680	 0.282375	 7.180193	-13.446250	 29.878300	 12.440420	 57.051760	-6.030856	 19.803480	 66.218340	-4.743678	 19.548970	-22.376190	 14.372670	 5.455778	 67.234730	-3.487164	 9.753775	 73.686180	-1.896894	 12.085130	-11.036880	-31.870390	-0.166524	 29.695130	 40.677500	-0.536334	 0.352856	 43.636840	-0.401727	 3.695138	 0.000000	 90.000000	 0.000000	 170.383100	 6.873891	 170.946500	-176.946000	-2.257972	-5.056947
